<svg width="26" height="26" viewBox="0 0 26 26" fill="none" xmlns="http://www.w3.org/2000/svg">
<path d="M18.9211 26V22.1H14.9737V19.5H18.9211V15.6H21.5526V19.5H25.5V22.1H21.5526V26H18.9211ZM3.13158 23.4C2.40789 23.4 1.78838 23.1454 1.27303 22.6362C0.757675 22.1271 0.5 21.515 0.5 20.8V5.2C0.5 4.485 0.757675 3.87292 1.27303 3.36375C1.78838 2.85458 2.40789 2.6 3.13158 2.6H4.44737V0H7.07895V2.6H14.9737V0H17.6053V2.6H18.9211C19.6447 2.6 20.2643 2.85458 20.7796 3.36375C21.295 3.87292 21.5526 4.485 21.5526 5.2V13.13C21.114 13.065 20.6754 13.0325 20.2368 13.0325C19.7982 13.0325 19.3596 13.065 18.9211 13.13V10.4H3.13158V20.8H12.3421C12.3421 21.2333 12.375 21.6667 12.4408 22.1C12.5066 22.5333 12.6272 22.9667 12.8026 23.4H3.13158ZM3.13158 7.8H18.9211V5.2H3.13158V7.8Z" fill="#333333"/>
</svg>
