<svg width="25" height="25" viewBox="0 0 25 25" fill="none" xmlns="http://www.w3.org/2000/svg">
<g clip-path="url(#clip0_2106_6)">
<path d="M2.5 25C1.8125 25 1.22396 24.7552 0.734375 24.2656C0.244792 23.776 0 23.1875 0 22.5V5C0 4.3125 0.244792 3.72396 0.734375 3.23438C1.22396 2.74479 1.8125 2.5 2.5 2.5H3.75V0H6.25V2.5H16.25V0H18.75V2.5H20C20.6875 2.5 21.276 2.74479 21.7656 3.23438C22.2552 3.72396 22.5 4.3125 22.5 5V11.25H20V10H2.5V22.5H11.25V25H2.5ZM2.5 7.5H20V5H2.5V7.5ZM13.75 25V21.1562L20.6562 14.2812C20.8438 14.0938 21.0521 13.9583 21.2812 13.875C21.5104 13.7917 21.7396 13.75 21.9688 13.75C22.2188 13.75 22.4583 13.7969 22.6875 13.8906C22.9167 13.9844 23.125 14.125 23.3125 14.3125L24.4688 15.4688C24.6354 15.6562 24.7656 15.8646 24.8594 16.0938C24.9531 16.3229 25 16.5521 25 16.7812C25 17.0104 24.9583 17.2448 24.875 17.4844C24.7917 17.724 24.6562 17.9375 24.4688 18.125L17.5938 25H13.75ZM15.625 23.125H16.8125L20.5938 19.3125L20.0312 18.7188L19.4375 18.1562L15.625 21.9375V23.125ZM20.0312 18.7188L19.4375 18.1562L20.5938 19.3125L20.0312 18.7188Z" fill="#333333"/>
</g>
<defs>
<clipPath id="clip0_2106_6">
<rect width="25" height="25" fill="white"/>
</clipPath>
</defs>
</svg>
