<svg width="19" height="18" viewBox="0 0 19 18" fill="none" xmlns="http://www.w3.org/2000/svg">
<path d="M4.75 16.5C4.3375 16.5 3.98438 16.3531 3.69063 16.0594C3.39687 15.7656 3.25 15.4125 3.25 15V7.5C3.25 7.0875 3.39687 6.73438 3.69063 6.44063C3.98438 6.14688 4.3375 6 4.75 6H5.5V4.5C5.5 3.4625 5.86563 2.57813 6.59688 1.84688C7.32813 1.11563 8.2125 0.75 9.25 0.75C10.2875 0.75 11.1719 1.11563 11.9031 1.84688C12.6344 2.57813 13 3.4625 13 4.5V6H13.75C14.1625 6 14.5156 6.14688 14.8094 6.44063C15.1031 6.73438 15.25 7.0875 15.25 7.5V15C15.25 15.4125 15.1031 15.7656 14.8094 16.0594C14.5156 16.3531 14.1625 16.5 13.75 16.5H4.75ZM4.75 15H13.75V7.5H4.75V15ZM9.25 12.75C9.6625 12.75 10.0156 12.6031 10.3094 12.3094C10.6031 12.0156 10.75 11.6625 10.75 11.25C10.75 10.8375 10.6031 10.4844 10.3094 10.1906C10.0156 9.89688 9.6625 9.75 9.25 9.75C8.8375 9.75 8.48438 9.89688 8.19063 10.1906C7.89688 10.4844 7.75 10.8375 7.75 11.25C7.75 11.6625 7.89688 12.0156 8.19063 12.3094C8.48438 12.6031 8.8375 12.75 9.25 12.75ZM7 6H11.5V4.5C11.5 3.875 11.2813 3.34375 10.8438 2.90625C10.4063 2.46875 9.875 2.25 9.25 2.25C8.625 2.25 8.09375 2.46875 7.65625 2.90625C7.21875 3.34375 7 3.875 7 4.5V6Z" fill="#A3A3A3"/>
</svg>
