<svg width="17" height="12" viewBox="0 0 17 12" fill="none" xmlns="http://www.w3.org/2000/svg">
<path d="M0.25 12V9.9C0.25 9.475 0.359375 9.08438 0.578125 8.72813C0.796875 8.37188 1.0875 8.1 1.45 7.9125C2.225 7.525 3.0125 7.23438 3.8125 7.04063C4.6125 6.84688 5.425 6.75 6.25 6.75C7.075 6.75 7.8875 6.84688 8.6875 7.04063C9.4875 7.23438 10.275 7.525 11.05 7.9125C11.4125 8.1 11.7031 8.37188 11.9219 8.72813C12.1406 9.08438 12.25 9.475 12.25 9.9V12H0.25ZM13.75 12V9.75C13.75 9.2 13.5969 8.67188 13.2906 8.16563C12.9844 7.65938 12.55 7.225 11.9875 6.8625C12.625 6.9375 13.225 7.06563 13.7875 7.24688C14.35 7.42813 14.875 7.65 15.3625 7.9125C15.8125 8.1625 16.1563 8.44063 16.3938 8.74688C16.6313 9.05313 16.75 9.3875 16.75 9.75V12H13.75ZM6.25 6C5.425 6 4.71875 5.70625 4.13125 5.11875C3.54375 4.53125 3.25 3.825 3.25 3C3.25 2.175 3.54375 1.46875 4.13125 0.88125C4.71875 0.29375 5.425 0 6.25 0C7.075 0 7.78125 0.29375 8.36875 0.88125C8.95625 1.46875 9.25 2.175 9.25 3C9.25 3.825 8.95625 4.53125 8.36875 5.11875C7.78125 5.70625 7.075 6 6.25 6ZM13.75 3C13.75 3.825 13.4563 4.53125 12.8688 5.11875C12.2812 5.70625 11.575 6 10.75 6C10.6125 6 10.4375 5.98438 10.225 5.95312C10.0125 5.92188 9.8375 5.8875 9.7 5.85C10.0375 5.45 10.2969 5.00625 10.4781 4.51875C10.6594 4.03125 10.75 3.525 10.75 3C10.75 2.475 10.6594 1.96875 10.4781 1.48125C10.2969 0.99375 10.0375 0.55 9.7 0.15C9.875 0.0875 10.05 0.046875 10.225 0.028125C10.4 0.009375 10.575 0 10.75 0C11.575 0 12.2812 0.29375 12.8688 0.88125C13.4563 1.46875 13.75 2.175 13.75 3ZM1.75 10.5H10.75V9.9C10.75 9.7625 10.7156 9.6375 10.6469 9.525C10.5781 9.4125 10.4875 9.325 10.375 9.2625C9.7 8.925 9.01875 8.67188 8.33125 8.50313C7.64375 8.33438 6.95 8.25 6.25 8.25C5.55 8.25 4.85625 8.33438 4.16875 8.50313C3.48125 8.67188 2.8 8.925 2.125 9.2625C2.0125 9.325 1.92188 9.4125 1.85313 9.525C1.78438 9.6375 1.75 9.7625 1.75 9.9V10.5ZM6.25 4.5C6.6625 4.5 7.01563 4.35313 7.30938 4.05938C7.60313 3.76563 7.75 3.4125 7.75 3C7.75 2.5875 7.60313 2.23438 7.30938 1.94063C7.01563 1.64688 6.6625 1.5 6.25 1.5C5.8375 1.5 5.48438 1.64688 5.19063 1.94063C4.89688 2.23438 4.75 2.5875 4.75 3C4.75 3.4125 4.89688 3.76563 5.19063 4.05938C5.48438 4.35313 5.8375 4.5 6.25 4.5Z" fill="#A3A3A3"/>
</svg>
