<svg width="21" height="20" viewBox="0 0 21 20" fill="none" xmlns="http://www.w3.org/2000/svg">
<path d="M9.6 14.5H11.4V10.9H15V9.1H11.4V5.5H9.6V9.1H6V10.9H9.6V14.5ZM10.5 19C9.255 19 8.085 18.7638 6.99 18.2913C5.895 17.8188 4.9425 17.1775 4.1325 16.3675C3.3225 15.5575 2.68125 14.605 2.20875 13.51C1.73625 12.415 1.5 11.245 1.5 10C1.5 8.755 1.73625 7.585 2.20875 6.49C2.68125 5.395 3.3225 4.4425 4.1325 3.6325C4.9425 2.8225 5.895 2.18125 6.99 1.70875C8.085 1.23625 9.255 1 10.5 1C11.745 1 12.915 1.23625 14.01 1.70875C15.105 2.18125 16.0575 2.8225 16.8675 3.6325C17.6775 4.4425 18.3188 5.395 18.7913 6.49C19.2638 7.585 19.5 8.755 19.5 10C19.5 11.245 19.2638 12.415 18.7913 13.51C18.3188 14.605 17.6775 15.5575 16.8675 16.3675C16.0575 17.1775 15.105 17.8188 14.01 18.2913C12.915 18.7638 11.745 19 10.5 19ZM10.5 17.2C12.51 17.2 14.2125 16.5025 15.6075 15.1075C17.0025 13.7125 17.7 12.01 17.7 10C17.7 7.99 17.0025 6.2875 15.6075 4.8925C14.2125 3.4975 12.51 2.8 10.5 2.8C8.49 2.8 6.7875 3.4975 5.3925 4.8925C3.9975 6.2875 3.3 7.99 3.3 10C3.3 12.01 3.9975 13.7125 5.3925 15.1075C6.7875 16.5025 8.49 17.2 10.5 17.2Z" fill="white"/>
</svg>
